%TF.GenerationSoftware,KiCad,Pcbnew,10.0.1*%
%TF.CreationDate,2026-05-15T23:15:13-04:00*%
%TF.ProjectId,MultiPsx2Usb,4d756c74-6950-4737-9832-5573622e6b69,rev?*%
%TF.SameCoordinates,Original*%
%TF.FileFunction,Legend,Top*%
%TF.FilePolarity,Positive*%
%FSLAX46Y46*%
G04 Gerber Fmt 4.6, Leading zero omitted, Abs format (unit mm)*
G04 Created by KiCad (PCBNEW 10.0.1) date 2026-05-15 23:15:13*
%MOMM*%
%LPD*%
G01*
G04 APERTURE LIST*
%ADD10C,0.150000*%
%ADD11C,0.120000*%
%ADD12C,0.100000*%
G04 APERTURE END LIST*
D10*
X167833333Y-138954819D02*
X167500000Y-138478628D01*
X167261905Y-138954819D02*
X167261905Y-137954819D01*
X167261905Y-137954819D02*
X167642857Y-137954819D01*
X167642857Y-137954819D02*
X167738095Y-138002438D01*
X167738095Y-138002438D02*
X167785714Y-138050057D01*
X167785714Y-138050057D02*
X167833333Y-138145295D01*
X167833333Y-138145295D02*
X167833333Y-138288152D01*
X167833333Y-138288152D02*
X167785714Y-138383390D01*
X167785714Y-138383390D02*
X167738095Y-138431009D01*
X167738095Y-138431009D02*
X167642857Y-138478628D01*
X167642857Y-138478628D02*
X167261905Y-138478628D01*
X168166667Y-137954819D02*
X168833333Y-137954819D01*
X168833333Y-137954819D02*
X168404762Y-138954819D01*
X148833333Y-127454819D02*
X148500000Y-126978628D01*
X148261905Y-127454819D02*
X148261905Y-126454819D01*
X148261905Y-126454819D02*
X148642857Y-126454819D01*
X148642857Y-126454819D02*
X148738095Y-126502438D01*
X148738095Y-126502438D02*
X148785714Y-126550057D01*
X148785714Y-126550057D02*
X148833333Y-126645295D01*
X148833333Y-126645295D02*
X148833333Y-126788152D01*
X148833333Y-126788152D02*
X148785714Y-126883390D01*
X148785714Y-126883390D02*
X148738095Y-126931009D01*
X148738095Y-126931009D02*
X148642857Y-126978628D01*
X148642857Y-126978628D02*
X148261905Y-126978628D01*
X149690476Y-126454819D02*
X149500000Y-126454819D01*
X149500000Y-126454819D02*
X149404762Y-126502438D01*
X149404762Y-126502438D02*
X149357143Y-126550057D01*
X149357143Y-126550057D02*
X149261905Y-126692914D01*
X149261905Y-126692914D02*
X149214286Y-126883390D01*
X149214286Y-126883390D02*
X149214286Y-127264342D01*
X149214286Y-127264342D02*
X149261905Y-127359580D01*
X149261905Y-127359580D02*
X149309524Y-127407200D01*
X149309524Y-127407200D02*
X149404762Y-127454819D01*
X149404762Y-127454819D02*
X149595238Y-127454819D01*
X149595238Y-127454819D02*
X149690476Y-127407200D01*
X149690476Y-127407200D02*
X149738095Y-127359580D01*
X149738095Y-127359580D02*
X149785714Y-127264342D01*
X149785714Y-127264342D02*
X149785714Y-127026247D01*
X149785714Y-127026247D02*
X149738095Y-126931009D01*
X149738095Y-126931009D02*
X149690476Y-126883390D01*
X149690476Y-126883390D02*
X149595238Y-126835771D01*
X149595238Y-126835771D02*
X149404762Y-126835771D01*
X149404762Y-126835771D02*
X149309524Y-126883390D01*
X149309524Y-126883390D02*
X149261905Y-126931009D01*
X149261905Y-126931009D02*
X149214286Y-127026247D01*
X153333333Y-127359580D02*
X153285714Y-127407200D01*
X153285714Y-127407200D02*
X153142857Y-127454819D01*
X153142857Y-127454819D02*
X153047619Y-127454819D01*
X153047619Y-127454819D02*
X152904762Y-127407200D01*
X152904762Y-127407200D02*
X152809524Y-127311961D01*
X152809524Y-127311961D02*
X152761905Y-127216723D01*
X152761905Y-127216723D02*
X152714286Y-127026247D01*
X152714286Y-127026247D02*
X152714286Y-126883390D01*
X152714286Y-126883390D02*
X152761905Y-126692914D01*
X152761905Y-126692914D02*
X152809524Y-126597676D01*
X152809524Y-126597676D02*
X152904762Y-126502438D01*
X152904762Y-126502438D02*
X153047619Y-126454819D01*
X153047619Y-126454819D02*
X153142857Y-126454819D01*
X153142857Y-126454819D02*
X153285714Y-126502438D01*
X153285714Y-126502438D02*
X153333333Y-126550057D01*
X154190476Y-126454819D02*
X154000000Y-126454819D01*
X154000000Y-126454819D02*
X153904762Y-126502438D01*
X153904762Y-126502438D02*
X153857143Y-126550057D01*
X153857143Y-126550057D02*
X153761905Y-126692914D01*
X153761905Y-126692914D02*
X153714286Y-126883390D01*
X153714286Y-126883390D02*
X153714286Y-127264342D01*
X153714286Y-127264342D02*
X153761905Y-127359580D01*
X153761905Y-127359580D02*
X153809524Y-127407200D01*
X153809524Y-127407200D02*
X153904762Y-127454819D01*
X153904762Y-127454819D02*
X154095238Y-127454819D01*
X154095238Y-127454819D02*
X154190476Y-127407200D01*
X154190476Y-127407200D02*
X154238095Y-127359580D01*
X154238095Y-127359580D02*
X154285714Y-127264342D01*
X154285714Y-127264342D02*
X154285714Y-127026247D01*
X154285714Y-127026247D02*
X154238095Y-126931009D01*
X154238095Y-126931009D02*
X154190476Y-126883390D01*
X154190476Y-126883390D02*
X154095238Y-126835771D01*
X154095238Y-126835771D02*
X153904762Y-126835771D01*
X153904762Y-126835771D02*
X153809524Y-126883390D01*
X153809524Y-126883390D02*
X153761905Y-126931009D01*
X153761905Y-126931009D02*
X153714286Y-127026247D01*
X153833333Y-157954819D02*
X153500000Y-157478628D01*
X153261905Y-157954819D02*
X153261905Y-156954819D01*
X153261905Y-156954819D02*
X153642857Y-156954819D01*
X153642857Y-156954819D02*
X153738095Y-157002438D01*
X153738095Y-157002438D02*
X153785714Y-157050057D01*
X153785714Y-157050057D02*
X153833333Y-157145295D01*
X153833333Y-157145295D02*
X153833333Y-157288152D01*
X153833333Y-157288152D02*
X153785714Y-157383390D01*
X153785714Y-157383390D02*
X153738095Y-157431009D01*
X153738095Y-157431009D02*
X153642857Y-157478628D01*
X153642857Y-157478628D02*
X153261905Y-157478628D01*
X154166667Y-156954819D02*
X154785714Y-156954819D01*
X154785714Y-156954819D02*
X154452381Y-157335771D01*
X154452381Y-157335771D02*
X154595238Y-157335771D01*
X154595238Y-157335771D02*
X154690476Y-157383390D01*
X154690476Y-157383390D02*
X154738095Y-157431009D01*
X154738095Y-157431009D02*
X154785714Y-157526247D01*
X154785714Y-157526247D02*
X154785714Y-157764342D01*
X154785714Y-157764342D02*
X154738095Y-157859580D01*
X154738095Y-157859580D02*
X154690476Y-157907200D01*
X154690476Y-157907200D02*
X154595238Y-157954819D01*
X154595238Y-157954819D02*
X154309524Y-157954819D01*
X154309524Y-157954819D02*
X154214286Y-157907200D01*
X154214286Y-157907200D02*
X154166667Y-157859580D01*
X144833333Y-127454819D02*
X144500000Y-126978628D01*
X144261905Y-127454819D02*
X144261905Y-126454819D01*
X144261905Y-126454819D02*
X144642857Y-126454819D01*
X144642857Y-126454819D02*
X144738095Y-126502438D01*
X144738095Y-126502438D02*
X144785714Y-126550057D01*
X144785714Y-126550057D02*
X144833333Y-126645295D01*
X144833333Y-126645295D02*
X144833333Y-126788152D01*
X144833333Y-126788152D02*
X144785714Y-126883390D01*
X144785714Y-126883390D02*
X144738095Y-126931009D01*
X144738095Y-126931009D02*
X144642857Y-126978628D01*
X144642857Y-126978628D02*
X144261905Y-126978628D01*
X145738095Y-126454819D02*
X145261905Y-126454819D01*
X145261905Y-126454819D02*
X145214286Y-126931009D01*
X145214286Y-126931009D02*
X145261905Y-126883390D01*
X145261905Y-126883390D02*
X145357143Y-126835771D01*
X145357143Y-126835771D02*
X145595238Y-126835771D01*
X145595238Y-126835771D02*
X145690476Y-126883390D01*
X145690476Y-126883390D02*
X145738095Y-126931009D01*
X145738095Y-126931009D02*
X145785714Y-127026247D01*
X145785714Y-127026247D02*
X145785714Y-127264342D01*
X145785714Y-127264342D02*
X145738095Y-127359580D01*
X145738095Y-127359580D02*
X145690476Y-127407200D01*
X145690476Y-127407200D02*
X145595238Y-127454819D01*
X145595238Y-127454819D02*
X145357143Y-127454819D01*
X145357143Y-127454819D02*
X145261905Y-127407200D01*
X145261905Y-127407200D02*
X145214286Y-127359580D01*
X164833333Y-138954819D02*
X164500000Y-138478628D01*
X164261905Y-138954819D02*
X164261905Y-137954819D01*
X164261905Y-137954819D02*
X164642857Y-137954819D01*
X164642857Y-137954819D02*
X164738095Y-138002438D01*
X164738095Y-138002438D02*
X164785714Y-138050057D01*
X164785714Y-138050057D02*
X164833333Y-138145295D01*
X164833333Y-138145295D02*
X164833333Y-138288152D01*
X164833333Y-138288152D02*
X164785714Y-138383390D01*
X164785714Y-138383390D02*
X164738095Y-138431009D01*
X164738095Y-138431009D02*
X164642857Y-138478628D01*
X164642857Y-138478628D02*
X164261905Y-138478628D01*
X165404762Y-138383390D02*
X165309524Y-138335771D01*
X165309524Y-138335771D02*
X165261905Y-138288152D01*
X165261905Y-138288152D02*
X165214286Y-138192914D01*
X165214286Y-138192914D02*
X165214286Y-138145295D01*
X165214286Y-138145295D02*
X165261905Y-138050057D01*
X165261905Y-138050057D02*
X165309524Y-138002438D01*
X165309524Y-138002438D02*
X165404762Y-137954819D01*
X165404762Y-137954819D02*
X165595238Y-137954819D01*
X165595238Y-137954819D02*
X165690476Y-138002438D01*
X165690476Y-138002438D02*
X165738095Y-138050057D01*
X165738095Y-138050057D02*
X165785714Y-138145295D01*
X165785714Y-138145295D02*
X165785714Y-138192914D01*
X165785714Y-138192914D02*
X165738095Y-138288152D01*
X165738095Y-138288152D02*
X165690476Y-138335771D01*
X165690476Y-138335771D02*
X165595238Y-138383390D01*
X165595238Y-138383390D02*
X165404762Y-138383390D01*
X165404762Y-138383390D02*
X165309524Y-138431009D01*
X165309524Y-138431009D02*
X165261905Y-138478628D01*
X165261905Y-138478628D02*
X165214286Y-138573866D01*
X165214286Y-138573866D02*
X165214286Y-138764342D01*
X165214286Y-138764342D02*
X165261905Y-138859580D01*
X165261905Y-138859580D02*
X165309524Y-138907200D01*
X165309524Y-138907200D02*
X165404762Y-138954819D01*
X165404762Y-138954819D02*
X165595238Y-138954819D01*
X165595238Y-138954819D02*
X165690476Y-138907200D01*
X165690476Y-138907200D02*
X165738095Y-138859580D01*
X165738095Y-138859580D02*
X165785714Y-138764342D01*
X165785714Y-138764342D02*
X165785714Y-138573866D01*
X165785714Y-138573866D02*
X165738095Y-138478628D01*
X165738095Y-138478628D02*
X165690476Y-138431009D01*
X165690476Y-138431009D02*
X165595238Y-138383390D01*
X168833333Y-152929580D02*
X168785714Y-152977200D01*
X168785714Y-152977200D02*
X168642857Y-153024819D01*
X168642857Y-153024819D02*
X168547619Y-153024819D01*
X168547619Y-153024819D02*
X168404762Y-152977200D01*
X168404762Y-152977200D02*
X168309524Y-152881961D01*
X168309524Y-152881961D02*
X168261905Y-152786723D01*
X168261905Y-152786723D02*
X168214286Y-152596247D01*
X168214286Y-152596247D02*
X168214286Y-152453390D01*
X168214286Y-152453390D02*
X168261905Y-152262914D01*
X168261905Y-152262914D02*
X168309524Y-152167676D01*
X168309524Y-152167676D02*
X168404762Y-152072438D01*
X168404762Y-152072438D02*
X168547619Y-152024819D01*
X168547619Y-152024819D02*
X168642857Y-152024819D01*
X168642857Y-152024819D02*
X168785714Y-152072438D01*
X168785714Y-152072438D02*
X168833333Y-152120057D01*
X169785714Y-153024819D02*
X169214286Y-153024819D01*
X169500000Y-153024819D02*
X169500000Y-152024819D01*
X169500000Y-152024819D02*
X169404762Y-152167676D01*
X169404762Y-152167676D02*
X169309524Y-152262914D01*
X169309524Y-152262914D02*
X169214286Y-152310533D01*
X149833333Y-153454819D02*
X149500000Y-152978628D01*
X149261905Y-153454819D02*
X149261905Y-152454819D01*
X149261905Y-152454819D02*
X149642857Y-152454819D01*
X149642857Y-152454819D02*
X149738095Y-152502438D01*
X149738095Y-152502438D02*
X149785714Y-152550057D01*
X149785714Y-152550057D02*
X149833333Y-152645295D01*
X149833333Y-152645295D02*
X149833333Y-152788152D01*
X149833333Y-152788152D02*
X149785714Y-152883390D01*
X149785714Y-152883390D02*
X149738095Y-152931009D01*
X149738095Y-152931009D02*
X149642857Y-152978628D01*
X149642857Y-152978628D02*
X149261905Y-152978628D01*
X150785714Y-153454819D02*
X150214286Y-153454819D01*
X150500000Y-153454819D02*
X150500000Y-152454819D01*
X150500000Y-152454819D02*
X150404762Y-152597676D01*
X150404762Y-152597676D02*
X150309524Y-152692914D01*
X150309524Y-152692914D02*
X150214286Y-152740533D01*
X152333333Y-152359580D02*
X152285714Y-152407200D01*
X152285714Y-152407200D02*
X152142857Y-152454819D01*
X152142857Y-152454819D02*
X152047619Y-152454819D01*
X152047619Y-152454819D02*
X151904762Y-152407200D01*
X151904762Y-152407200D02*
X151809524Y-152311961D01*
X151809524Y-152311961D02*
X151761905Y-152216723D01*
X151761905Y-152216723D02*
X151714286Y-152026247D01*
X151714286Y-152026247D02*
X151714286Y-151883390D01*
X151714286Y-151883390D02*
X151761905Y-151692914D01*
X151761905Y-151692914D02*
X151809524Y-151597676D01*
X151809524Y-151597676D02*
X151904762Y-151502438D01*
X151904762Y-151502438D02*
X152047619Y-151454819D01*
X152047619Y-151454819D02*
X152142857Y-151454819D01*
X152142857Y-151454819D02*
X152285714Y-151502438D01*
X152285714Y-151502438D02*
X152333333Y-151550057D01*
X152904762Y-151883390D02*
X152809524Y-151835771D01*
X152809524Y-151835771D02*
X152761905Y-151788152D01*
X152761905Y-151788152D02*
X152714286Y-151692914D01*
X152714286Y-151692914D02*
X152714286Y-151645295D01*
X152714286Y-151645295D02*
X152761905Y-151550057D01*
X152761905Y-151550057D02*
X152809524Y-151502438D01*
X152809524Y-151502438D02*
X152904762Y-151454819D01*
X152904762Y-151454819D02*
X153095238Y-151454819D01*
X153095238Y-151454819D02*
X153190476Y-151502438D01*
X153190476Y-151502438D02*
X153238095Y-151550057D01*
X153238095Y-151550057D02*
X153285714Y-151645295D01*
X153285714Y-151645295D02*
X153285714Y-151692914D01*
X153285714Y-151692914D02*
X153238095Y-151788152D01*
X153238095Y-151788152D02*
X153190476Y-151835771D01*
X153190476Y-151835771D02*
X153095238Y-151883390D01*
X153095238Y-151883390D02*
X152904762Y-151883390D01*
X152904762Y-151883390D02*
X152809524Y-151931009D01*
X152809524Y-151931009D02*
X152761905Y-151978628D01*
X152761905Y-151978628D02*
X152714286Y-152073866D01*
X152714286Y-152073866D02*
X152714286Y-152264342D01*
X152714286Y-152264342D02*
X152761905Y-152359580D01*
X152761905Y-152359580D02*
X152809524Y-152407200D01*
X152809524Y-152407200D02*
X152904762Y-152454819D01*
X152904762Y-152454819D02*
X153095238Y-152454819D01*
X153095238Y-152454819D02*
X153190476Y-152407200D01*
X153190476Y-152407200D02*
X153238095Y-152359580D01*
X153238095Y-152359580D02*
X153285714Y-152264342D01*
X153285714Y-152264342D02*
X153285714Y-152073866D01*
X153285714Y-152073866D02*
X153238095Y-151978628D01*
X153238095Y-151978628D02*
X153190476Y-151931009D01*
X153190476Y-151931009D02*
X153095238Y-151883390D01*
X158333333Y-136454819D02*
X157857143Y-136454819D01*
X157857143Y-136454819D02*
X157857143Y-135454819D01*
X159190476Y-136454819D02*
X158619048Y-136454819D01*
X158904762Y-136454819D02*
X158904762Y-135454819D01*
X158904762Y-135454819D02*
X158809524Y-135597676D01*
X158809524Y-135597676D02*
X158714286Y-135692914D01*
X158714286Y-135692914D02*
X158619048Y-135740533D01*
X150833333Y-142359580D02*
X150785714Y-142407200D01*
X150785714Y-142407200D02*
X150642857Y-142454819D01*
X150642857Y-142454819D02*
X150547619Y-142454819D01*
X150547619Y-142454819D02*
X150404762Y-142407200D01*
X150404762Y-142407200D02*
X150309524Y-142311961D01*
X150309524Y-142311961D02*
X150261905Y-142216723D01*
X150261905Y-142216723D02*
X150214286Y-142026247D01*
X150214286Y-142026247D02*
X150214286Y-141883390D01*
X150214286Y-141883390D02*
X150261905Y-141692914D01*
X150261905Y-141692914D02*
X150309524Y-141597676D01*
X150309524Y-141597676D02*
X150404762Y-141502438D01*
X150404762Y-141502438D02*
X150547619Y-141454819D01*
X150547619Y-141454819D02*
X150642857Y-141454819D01*
X150642857Y-141454819D02*
X150785714Y-141502438D01*
X150785714Y-141502438D02*
X150833333Y-141550057D01*
X151166667Y-141454819D02*
X151833333Y-141454819D01*
X151833333Y-141454819D02*
X151404762Y-142454819D01*
X149333333Y-143954819D02*
X149000000Y-143478628D01*
X148761905Y-143954819D02*
X148761905Y-142954819D01*
X148761905Y-142954819D02*
X149142857Y-142954819D01*
X149142857Y-142954819D02*
X149238095Y-143002438D01*
X149238095Y-143002438D02*
X149285714Y-143050057D01*
X149285714Y-143050057D02*
X149333333Y-143145295D01*
X149333333Y-143145295D02*
X149333333Y-143288152D01*
X149333333Y-143288152D02*
X149285714Y-143383390D01*
X149285714Y-143383390D02*
X149238095Y-143431009D01*
X149238095Y-143431009D02*
X149142857Y-143478628D01*
X149142857Y-143478628D02*
X148761905Y-143478628D01*
X149714286Y-143050057D02*
X149761905Y-143002438D01*
X149761905Y-143002438D02*
X149857143Y-142954819D01*
X149857143Y-142954819D02*
X150095238Y-142954819D01*
X150095238Y-142954819D02*
X150190476Y-143002438D01*
X150190476Y-143002438D02*
X150238095Y-143050057D01*
X150238095Y-143050057D02*
X150285714Y-143145295D01*
X150285714Y-143145295D02*
X150285714Y-143240533D01*
X150285714Y-143240533D02*
X150238095Y-143383390D01*
X150238095Y-143383390D02*
X149666667Y-143954819D01*
X149666667Y-143954819D02*
X150285714Y-143954819D01*
X168833333Y-155929580D02*
X168785714Y-155977200D01*
X168785714Y-155977200D02*
X168642857Y-156024819D01*
X168642857Y-156024819D02*
X168547619Y-156024819D01*
X168547619Y-156024819D02*
X168404762Y-155977200D01*
X168404762Y-155977200D02*
X168309524Y-155881961D01*
X168309524Y-155881961D02*
X168261905Y-155786723D01*
X168261905Y-155786723D02*
X168214286Y-155596247D01*
X168214286Y-155596247D02*
X168214286Y-155453390D01*
X168214286Y-155453390D02*
X168261905Y-155262914D01*
X168261905Y-155262914D02*
X168309524Y-155167676D01*
X168309524Y-155167676D02*
X168404762Y-155072438D01*
X168404762Y-155072438D02*
X168547619Y-155024819D01*
X168547619Y-155024819D02*
X168642857Y-155024819D01*
X168642857Y-155024819D02*
X168785714Y-155072438D01*
X168785714Y-155072438D02*
X168833333Y-155120057D01*
X169214286Y-155120057D02*
X169261905Y-155072438D01*
X169261905Y-155072438D02*
X169357143Y-155024819D01*
X169357143Y-155024819D02*
X169595238Y-155024819D01*
X169595238Y-155024819D02*
X169690476Y-155072438D01*
X169690476Y-155072438D02*
X169738095Y-155120057D01*
X169738095Y-155120057D02*
X169785714Y-155215295D01*
X169785714Y-155215295D02*
X169785714Y-155310533D01*
X169785714Y-155310533D02*
X169738095Y-155453390D01*
X169738095Y-155453390D02*
X169166667Y-156024819D01*
X169166667Y-156024819D02*
X169785714Y-156024819D01*
X157833333Y-127454819D02*
X157500000Y-126978628D01*
X157261905Y-127454819D02*
X157261905Y-126454819D01*
X157261905Y-126454819D02*
X157642857Y-126454819D01*
X157642857Y-126454819D02*
X157738095Y-126502438D01*
X157738095Y-126502438D02*
X157785714Y-126550057D01*
X157785714Y-126550057D02*
X157833333Y-126645295D01*
X157833333Y-126645295D02*
X157833333Y-126788152D01*
X157833333Y-126788152D02*
X157785714Y-126883390D01*
X157785714Y-126883390D02*
X157738095Y-126931009D01*
X157738095Y-126931009D02*
X157642857Y-126978628D01*
X157642857Y-126978628D02*
X157261905Y-126978628D01*
X158690476Y-126788152D02*
X158690476Y-127454819D01*
X158452381Y-126407200D02*
X158214286Y-127121485D01*
X158214286Y-127121485D02*
X158833333Y-127121485D01*
X153833333Y-140359580D02*
X153785714Y-140407200D01*
X153785714Y-140407200D02*
X153642857Y-140454819D01*
X153642857Y-140454819D02*
X153547619Y-140454819D01*
X153547619Y-140454819D02*
X153404762Y-140407200D01*
X153404762Y-140407200D02*
X153309524Y-140311961D01*
X153309524Y-140311961D02*
X153261905Y-140216723D01*
X153261905Y-140216723D02*
X153214286Y-140026247D01*
X153214286Y-140026247D02*
X153214286Y-139883390D01*
X153214286Y-139883390D02*
X153261905Y-139692914D01*
X153261905Y-139692914D02*
X153309524Y-139597676D01*
X153309524Y-139597676D02*
X153404762Y-139502438D01*
X153404762Y-139502438D02*
X153547619Y-139454819D01*
X153547619Y-139454819D02*
X153642857Y-139454819D01*
X153642857Y-139454819D02*
X153785714Y-139502438D01*
X153785714Y-139502438D02*
X153833333Y-139550057D01*
X154738095Y-139454819D02*
X154261905Y-139454819D01*
X154261905Y-139454819D02*
X154214286Y-139931009D01*
X154214286Y-139931009D02*
X154261905Y-139883390D01*
X154261905Y-139883390D02*
X154357143Y-139835771D01*
X154357143Y-139835771D02*
X154595238Y-139835771D01*
X154595238Y-139835771D02*
X154690476Y-139883390D01*
X154690476Y-139883390D02*
X154738095Y-139931009D01*
X154738095Y-139931009D02*
X154785714Y-140026247D01*
X154785714Y-140026247D02*
X154785714Y-140264342D01*
X154785714Y-140264342D02*
X154738095Y-140359580D01*
X154738095Y-140359580D02*
X154690476Y-140407200D01*
X154690476Y-140407200D02*
X154595238Y-140454819D01*
X154595238Y-140454819D02*
X154357143Y-140454819D01*
X154357143Y-140454819D02*
X154261905Y-140407200D01*
X154261905Y-140407200D02*
X154214286Y-140359580D01*
X154333333Y-141859580D02*
X154285714Y-141907200D01*
X154285714Y-141907200D02*
X154142857Y-141954819D01*
X154142857Y-141954819D02*
X154047619Y-141954819D01*
X154047619Y-141954819D02*
X153904762Y-141907200D01*
X153904762Y-141907200D02*
X153809524Y-141811961D01*
X153809524Y-141811961D02*
X153761905Y-141716723D01*
X153761905Y-141716723D02*
X153714286Y-141526247D01*
X153714286Y-141526247D02*
X153714286Y-141383390D01*
X153714286Y-141383390D02*
X153761905Y-141192914D01*
X153761905Y-141192914D02*
X153809524Y-141097676D01*
X153809524Y-141097676D02*
X153904762Y-141002438D01*
X153904762Y-141002438D02*
X154047619Y-140954819D01*
X154047619Y-140954819D02*
X154142857Y-140954819D01*
X154142857Y-140954819D02*
X154285714Y-141002438D01*
X154285714Y-141002438D02*
X154333333Y-141050057D01*
X154666667Y-140954819D02*
X155285714Y-140954819D01*
X155285714Y-140954819D02*
X154952381Y-141335771D01*
X154952381Y-141335771D02*
X155095238Y-141335771D01*
X155095238Y-141335771D02*
X155190476Y-141383390D01*
X155190476Y-141383390D02*
X155238095Y-141431009D01*
X155238095Y-141431009D02*
X155285714Y-141526247D01*
X155285714Y-141526247D02*
X155285714Y-141764342D01*
X155285714Y-141764342D02*
X155238095Y-141859580D01*
X155238095Y-141859580D02*
X155190476Y-141907200D01*
X155190476Y-141907200D02*
X155095238Y-141954819D01*
X155095238Y-141954819D02*
X154809524Y-141954819D01*
X154809524Y-141954819D02*
X154714286Y-141907200D01*
X154714286Y-141907200D02*
X154666667Y-141859580D01*
X151333333Y-154859580D02*
X151285714Y-154907200D01*
X151285714Y-154907200D02*
X151142857Y-154954819D01*
X151142857Y-154954819D02*
X151047619Y-154954819D01*
X151047619Y-154954819D02*
X150904762Y-154907200D01*
X150904762Y-154907200D02*
X150809524Y-154811961D01*
X150809524Y-154811961D02*
X150761905Y-154716723D01*
X150761905Y-154716723D02*
X150714286Y-154526247D01*
X150714286Y-154526247D02*
X150714286Y-154383390D01*
X150714286Y-154383390D02*
X150761905Y-154192914D01*
X150761905Y-154192914D02*
X150809524Y-154097676D01*
X150809524Y-154097676D02*
X150904762Y-154002438D01*
X150904762Y-154002438D02*
X151047619Y-153954819D01*
X151047619Y-153954819D02*
X151142857Y-153954819D01*
X151142857Y-153954819D02*
X151285714Y-154002438D01*
X151285714Y-154002438D02*
X151333333Y-154050057D01*
X152190476Y-154288152D02*
X152190476Y-154954819D01*
X151952381Y-153907200D02*
X151714286Y-154621485D01*
X151714286Y-154621485D02*
X152333333Y-154621485D01*
%TO.C,R7*%
D11*
X167477500Y-140745276D02*
X167477500Y-141254724D01*
X168522500Y-140745276D02*
X168522500Y-141254724D01*
%TO.C,R6*%
X148477500Y-129667224D02*
X148477500Y-129157776D01*
X149522500Y-129667224D02*
X149522500Y-129157776D01*
%TO.C,C6*%
X152990000Y-129508767D02*
X152990000Y-129216233D01*
X154010000Y-129508767D02*
X154010000Y-129216233D01*
%TO.C,R3*%
X151294724Y-156977500D02*
X150785276Y-156977500D01*
X151294724Y-158022500D02*
X150785276Y-158022500D01*
%TO.C,D2*%
X169000000Y-135640000D02*
X169000000Y-139650000D01*
X171000000Y-135640000D02*
X169000000Y-135640000D01*
X171000000Y-135640000D02*
X171000000Y-139650000D01*
%TO.C,R5*%
X144477500Y-129157776D02*
X144477500Y-129667224D01*
X145522500Y-129157776D02*
X145522500Y-129667224D01*
%TO.C,U1*%
X153730000Y-144575000D02*
X153730000Y-145045000D01*
X153730000Y-151475000D02*
X153730000Y-151005000D01*
X160150000Y-144575000D02*
X153730000Y-144575000D01*
X160150000Y-151475000D02*
X153730000Y-151475000D01*
X152000000Y-145085000D02*
X151660000Y-144615000D01*
X152340000Y-144615000D01*
X152000000Y-145085000D01*
G36*
X152000000Y-145085000D02*
G01*
X151660000Y-144615000D01*
X152340000Y-144615000D01*
X152000000Y-145085000D01*
G37*
%TO.C,R8*%
X164477500Y-140657776D02*
X164477500Y-141167224D01*
X165522500Y-140657776D02*
X165522500Y-141167224D01*
%TO.C,AVR32DU1*%
D12*
X161890000Y-146425000D02*
X161890000Y-149575000D01*
D11*
X161890000Y-146425000D02*
X171110000Y-146425000D01*
D12*
X161890000Y-149575000D02*
X171110000Y-149575000D01*
D11*
X171110000Y-146425000D02*
X171110000Y-149575000D01*
D12*
X163000000Y-148900000D02*
G75*
G02*
X162400000Y-148900000I-300000J0D01*
G01*
X162400000Y-148900000D02*
G75*
G02*
X163000000Y-148900000I300000J0D01*
G01*
%TO.C,C1*%
D11*
X166853733Y-153490000D02*
X167146267Y-153490000D01*
X166853733Y-154510000D02*
X167146267Y-154510000D01*
%TO.C,R1*%
X148977500Y-150657776D02*
X148977500Y-151167224D01*
X150022500Y-150657776D02*
X150022500Y-151167224D01*
%TO.C,C8*%
X154853733Y-151990000D02*
X155146267Y-151990000D01*
X154853733Y-153010000D02*
X155146267Y-153010000D01*
%TO.C,SW1*%
X141750000Y-157500000D02*
X141750000Y-159500000D01*
X142750000Y-156200000D02*
X143200000Y-155750000D01*
X142750000Y-160800000D02*
X143200000Y-161250000D01*
X143200000Y-155750000D02*
X145800000Y-155750000D01*
X143200000Y-161250000D02*
X145800000Y-161250000D01*
X146250000Y-156200000D02*
X145800000Y-155750000D01*
X146250000Y-160800000D02*
X145800000Y-161250000D01*
X147250000Y-157500000D02*
X147250000Y-159500000D01*
%TO.C,PS2_CON1*%
D12*
X171500000Y-125500000D02*
X175500000Y-125500000D01*
X175500000Y-161500000D01*
X171500000Y-161500000D01*
X171500000Y-125500000D01*
%TO.C,L1*%
D11*
X158671267Y-137490000D02*
X158328733Y-137490000D01*
X158671267Y-138510000D02*
X158328733Y-138510000D01*
%TO.C,C7*%
X151853733Y-142990000D02*
X152146267Y-142990000D01*
X151853733Y-144010000D02*
X152146267Y-144010000D01*
%TO.C,R2*%
X148977500Y-146254724D02*
X148977500Y-145745276D01*
X150022500Y-146254724D02*
X150022500Y-145745276D01*
%TO.C,C2*%
X166853733Y-156490000D02*
X167146267Y-156490000D01*
X166853733Y-157510000D02*
X167146267Y-157510000D01*
%TO.C,NCV5171*%
X150740000Y-133340000D02*
X154860000Y-133340000D01*
X150740000Y-133435000D02*
X150740000Y-133340000D01*
X150740000Y-138460000D02*
X150740000Y-138365000D01*
X154860000Y-133340000D02*
X154860000Y-133435000D01*
X154860000Y-138365000D02*
X154860000Y-138460000D01*
X154860000Y-138460000D02*
X150740000Y-138460000D01*
X150200000Y-133430000D02*
X149960000Y-133100000D01*
X150440000Y-133100000D01*
X150200000Y-133430000D01*
G36*
X150200000Y-133430000D02*
G01*
X149960000Y-133100000D01*
X150440000Y-133100000D01*
X150200000Y-133430000D01*
G37*
%TO.C,J2*%
X144100000Y-143830000D02*
X145800000Y-143830000D01*
X144100000Y-153170000D02*
X145800000Y-153170000D01*
%TO.C,R4*%
X157477500Y-129157776D02*
X157477500Y-129667224D01*
X158522500Y-129157776D02*
X158522500Y-129667224D01*
%TO.C,C5*%
X156353733Y-139490000D02*
X156646267Y-139490000D01*
X156353733Y-140510000D02*
X156646267Y-140510000D01*
%TO.C,C3*%
X156353733Y-142490000D02*
X156646267Y-142490000D01*
X156353733Y-143510000D02*
X156646267Y-143510000D01*
%TO.C,D1*%
X169210000Y-128850000D02*
X161800000Y-128850000D01*
X169210000Y-133150000D02*
X161800000Y-133150000D01*
X169210000Y-133150000D02*
X169210000Y-128850000D01*
%TO.C,C4*%
X151186267Y-155490000D02*
X150893733Y-155490000D01*
X151186267Y-156510000D02*
X150893733Y-156510000D01*
%TO.C,J1*%
X156080000Y-154120000D02*
X156080000Y-159420000D01*
X161270000Y-154120000D02*
X156080000Y-154120000D01*
X161270000Y-154120000D02*
X161270000Y-156770000D01*
X161270000Y-156770000D02*
X163920000Y-156770000D01*
X162540000Y-154120000D02*
X163920000Y-154120000D01*
X163920000Y-154120000D02*
X163920000Y-155500000D01*
X163920000Y-156770000D02*
X163920000Y-159420000D01*
X163920000Y-159420000D02*
X156080000Y-159420000D01*
%TD*%
M02*
