%TF.GenerationSoftware,KiCad,Pcbnew,10.0.1*%
%TF.CreationDate,2026-05-15T23:15:13-04:00*%
%TF.ProjectId,MultiPsx2Usb,4d756c74-6950-4737-9832-5573622e6b69,rev?*%
%TF.SameCoordinates,Original*%
%TF.FileFunction,Copper,L1,Top*%
%TF.FilePolarity,Positive*%
%FSLAX46Y46*%
G04 Gerber Fmt 4.6, Leading zero omitted, Abs format (unit mm)*
G04 Created by KiCad (PCBNEW 10.0.1) date 2026-05-15 23:15:13*
%MOMM*%
%LPD*%
G01*
G04 APERTURE LIST*
G04 Aperture macros list*
%AMRoundRect*
0 Rectangle with rounded corners*
0 $1 Rounding radius*
0 $2 $3 $4 $5 $6 $7 $8 $9 X,Y pos of 4 corners*
0 Add a 4 corners polygon primitive as box body*
4,1,4,$2,$3,$4,$5,$6,$7,$8,$9,$2,$3,0*
0 Add four circle primitives for the rounded corners*
1,1,$1+$1,$2,$3*
1,1,$1+$1,$4,$5*
1,1,$1+$1,$6,$7*
1,1,$1+$1,$8,$9*
0 Add four rect primitives between the rounded corners*
20,1,$1+$1,$2,$3,$4,$5,0*
20,1,$1+$1,$4,$5,$6,$7,0*
20,1,$1+$1,$6,$7,$8,$9,0*
20,1,$1+$1,$8,$9,$2,$3,0*%
G04 Aperture macros list end*
%TA.AperFunction,Conductor*%
%ADD10C,0.200000*%
%TD*%
%TA.AperFunction,SMDPad,CuDef*%
%ADD11RoundRect,0.237500X-0.237500X0.250000X-0.237500X-0.250000X0.237500X-0.250000X0.237500X0.250000X0*%
%TD*%
%TA.AperFunction,SMDPad,CuDef*%
%ADD12RoundRect,0.237500X0.237500X-0.250000X0.237500X0.250000X-0.237500X0.250000X-0.237500X-0.250000X0*%
%TD*%
%TA.AperFunction,SMDPad,CuDef*%
%ADD13RoundRect,0.237500X0.237500X-0.300000X0.237500X0.300000X-0.237500X0.300000X-0.237500X-0.300000X0*%
%TD*%
%TA.AperFunction,SMDPad,CuDef*%
%ADD14RoundRect,0.237500X0.250000X0.237500X-0.250000X0.237500X-0.250000X-0.237500X0.250000X-0.237500X0*%
%TD*%
%TA.AperFunction,SMDPad,CuDef*%
%ADD15RoundRect,0.225000X-0.375000X0.225000X-0.375000X-0.225000X0.375000X-0.225000X0.375000X0.225000X0*%
%TD*%
%TA.AperFunction,SMDPad,CuDef*%
%ADD16RoundRect,0.200000X-0.900000X-0.200000X0.900000X-0.200000X0.900000X0.200000X-0.900000X0.200000X0*%
%TD*%
%TA.AperFunction,SMDPad,CuDef*%
%ADD17RoundRect,0.249997X-2.950003X-2.650003X2.950003X-2.650003X2.950003X2.650003X-2.950003X2.650003X0*%
%TD*%
%TA.AperFunction,SMDPad,CuDef*%
%ADD18R,0.600000X1.550000*%
%TD*%
%TA.AperFunction,SMDPad,CuDef*%
%ADD19RoundRect,0.237500X-0.300000X-0.237500X0.300000X-0.237500X0.300000X0.237500X-0.300000X0.237500X0*%
%TD*%
%TA.AperFunction,SMDPad,CuDef*%
%ADD20R,1.000000X0.750000*%
%TD*%
%TA.AperFunction,ComponentPad*%
%ADD21C,2.000000*%
%TD*%
%TA.AperFunction,SMDPad,CuDef*%
%ADD22RoundRect,0.237500X0.287500X0.237500X-0.287500X0.237500X-0.287500X-0.237500X0.287500X-0.237500X0*%
%TD*%
%TA.AperFunction,SMDPad,CuDef*%
%ADD23RoundRect,0.150000X-0.825000X-0.150000X0.825000X-0.150000X0.825000X0.150000X-0.825000X0.150000X0*%
%TD*%
%TA.AperFunction,SMDPad,CuDef*%
%ADD24RoundRect,0.150000X-0.425000X0.150000X-0.425000X-0.150000X0.425000X-0.150000X0.425000X0.150000X0*%
%TD*%
%TA.AperFunction,SMDPad,CuDef*%
%ADD25RoundRect,0.075000X-0.500000X0.075000X-0.500000X-0.075000X0.500000X-0.075000X0.500000X0.075000X0*%
%TD*%
%TA.AperFunction,ComponentPad*%
%ADD26O,2.100000X1.000000*%
%TD*%
%TA.AperFunction,ComponentPad*%
%ADD27O,1.800000X1.000000*%
%TD*%
%TA.AperFunction,SMDPad,CuDef*%
%ADD28RoundRect,0.250000X1.500000X0.900000X-1.500000X0.900000X-1.500000X-0.900000X1.500000X-0.900000X0*%
%TD*%
%TA.AperFunction,SMDPad,CuDef*%
%ADD29RoundRect,0.237500X0.300000X0.237500X-0.300000X0.237500X-0.300000X-0.237500X0.300000X-0.237500X0*%
%TD*%
%TA.AperFunction,ComponentPad*%
%ADD30R,1.700000X1.700000*%
%TD*%
%TA.AperFunction,ComponentPad*%
%ADD31C,1.700000*%
%TD*%
%TA.AperFunction,ViaPad*%
%ADD32C,0.600000*%
%TD*%
%TA.AperFunction,Conductor*%
%ADD33C,0.300000*%
%TD*%
%TA.AperFunction,Conductor*%
%ADD34C,0.500000*%
%TD*%
G04 APERTURE END LIST*
%TO.N,GND*%
D10*
X152000000Y-134000000D02*
X154000000Y-134000000D01*
X154000000Y-137500000D01*
X152000000Y-137500000D01*
X152000000Y-134000000D01*
%TA.AperFunction,Conductor*%
G36*
X152000000Y-134000000D02*
G01*
X154000000Y-134000000D01*
X154000000Y-137500000D01*
X152000000Y-137500000D01*
X152000000Y-134000000D01*
G37*
%TD.AperFunction*%
%TD*%
D11*
%TO.P,R7,1*%
%TO.N,+3V3*%
X168000000Y-140087500D03*
%TO.P,R7,2*%
%TO.N,Net-(AVR32DU1-PC3)*%
X168000000Y-141912500D03*
%TD*%
D12*
%TO.P,R6,1*%
%TO.N,Net-(NCV5171-FB)*%
X149000000Y-130325000D03*
%TO.P,R6,2*%
%TO.N,GND*%
X149000000Y-128500000D03*
%TD*%
D13*
%TO.P,C6,1*%
%TO.N,Net-(NCV5171-VC)*%
X153500000Y-130225000D03*
%TO.P,C6,2*%
%TO.N,Net-(C6-Pad2)*%
X153500000Y-128500000D03*
%TD*%
D14*
%TO.P,R3,1*%
%TO.N,Net-(AVR32DU1-RESET)*%
X151952500Y-157500000D03*
%TO.P,R3,2*%
%TO.N,Net-(R3-Pad2)*%
X150127500Y-157500000D03*
%TD*%
D15*
%TO.P,D2,1,K_1*%
%TO.N,+7.5V*%
X170000000Y-136350000D03*
%TO.P,D2,2,A_2*%
%TO.N,GND*%
X170000000Y-139650000D03*
%TD*%
D11*
%TO.P,R5,1*%
%TO.N,+7.5V*%
X145000000Y-128500000D03*
%TO.P,R5,2*%
%TO.N,Net-(NCV5171-FB)*%
X145000000Y-130325000D03*
%TD*%
D16*
%TO.P,U1,1,VIN_1*%
%TO.N,+5V*%
X152000000Y-145745000D03*
%TO.P,U1,2,EN_2*%
X152000000Y-146885000D03*
%TO.P,U1,3,GND_3*%
%TO.N,GND*%
X152000000Y-148025000D03*
D17*
X158300000Y-148025000D03*
D16*
%TO.P,U1,4,PG_4*%
%TO.N,unconnected-(U1-PG-Pad4)*%
X152000000Y-149165000D03*
%TO.P,U1,5,VOUT_5*%
%TO.N,+3V3*%
X152000000Y-150305000D03*
%TD*%
D11*
%TO.P,R8,1*%
%TO.N,+3V3*%
X165000000Y-140000000D03*
%TO.P,R8,2*%
%TO.N,Net-(AVR32DU1-PD5)*%
X165000000Y-141825000D03*
%TD*%
D18*
%TO.P,AVR32DU1,1,GND_1*%
%TO.N,GND*%
X162690000Y-150600000D03*
%TO.P,AVR32DU1,2,RESET_2*%
%TO.N,Net-(AVR32DU1-RESET)*%
X163960000Y-150600000D03*
%TO.P,AVR32DU1,3,UPDI_3*%
%TO.N,Net-(AVR32DU1-UPDI)*%
X165230000Y-150600000D03*
%TO.P,AVR32DU1,4,PA0_4*%
%TO.N,/SS*%
X166500000Y-150600000D03*
%TO.P,AVR32DU1,5,PA1_5*%
%TO.N,unconnected-(AVR32DU1-PA1-Pad5)*%
X167770000Y-150600000D03*
%TO.P,AVR32DU1,6,VUSB_6*%
%TO.N,+5V*%
X169040000Y-150600000D03*
%TO.P,AVR32DU1,7,DM_7*%
%TO.N,Net-(AVR32DU1-DM)*%
X170310000Y-150600000D03*
%TO.P,AVR32DU1,8,DP_8*%
%TO.N,Net-(AVR32DU1-DP)*%
X170310000Y-145400000D03*
%TO.P,AVR32DU1,9,PC3_9*%
%TO.N,Net-(AVR32DU1-PC3)*%
X169040000Y-145400000D03*
%TO.P,AVR32DU1,10,PD4_10*%
%TO.N,Net-(AVR32DU1-PD4)*%
X167770000Y-145400000D03*
%TO.P,AVR32DU1,11,PD5_11*%
%TO.N,Net-(AVR32DU1-PD5)*%
X166500000Y-145400000D03*
%TO.P,AVR32DU1,12,PD6_12*%
%TO.N,Net-(AVR32DU1-PD6)*%
X165230000Y-145400000D03*
%TO.P,AVR32DU1,13,PD7_13*%
%TO.N,Net-(AVR32DU1-PD7)*%
X163960000Y-145400000D03*
%TO.P,AVR32DU1,14,VDD_14*%
%TO.N,+3V3*%
X162690000Y-145400000D03*
%TD*%
D19*
%TO.P,C1,1*%
%TO.N,+3V3*%
X166137500Y-154000000D03*
%TO.P,C1,2*%
%TO.N,GND*%
X167862500Y-154000000D03*
%TD*%
D11*
%TO.P,R1,1*%
%TO.N,Net-(J2-CC2)*%
X149500000Y-150000000D03*
%TO.P,R1,2*%
%TO.N,GND*%
X149500000Y-151825000D03*
%TD*%
D19*
%TO.P,C8,1*%
%TO.N,+3V3*%
X154137500Y-152500000D03*
%TO.P,C8,2*%
%TO.N,GND*%
X155862500Y-152500000D03*
%TD*%
D20*
%TO.P,SW1,1,1_1*%
%TO.N,Net-(R3-Pad2)*%
X141500000Y-156625000D03*
X147500000Y-156625000D03*
%TO.P,SW1,2,2_2*%
%TO.N,GND*%
X141500000Y-160375000D03*
X147500000Y-160375000D03*
%TD*%
D21*
%TO.P,PS2_CON1,1,DATA_1*%
%TO.N,Net-(AVR32DU1-PD5)*%
X173500000Y-127500000D03*
%TO.P,PS2_CON1,2,COMMAND_2*%
%TO.N,Net-(AVR32DU1-PD4)*%
X173500000Y-131500000D03*
%TO.P,PS2_CON1,3,VIBRATION_3*%
%TO.N,+7.5V*%
X173500000Y-135500000D03*
%TO.P,PS2_CON1,4,GND_4*%
%TO.N,GND*%
X173500000Y-139500000D03*
%TO.P,PS2_CON1,5,PWR_5*%
%TO.N,+3V3*%
X173500000Y-143500000D03*
%TO.P,PS2_CON1,6,ATT_6*%
%TO.N,Net-(AVR32DU1-PD7)*%
X173500000Y-147500000D03*
%TO.P,PS2_CON1,7,CLK_7*%
%TO.N,Net-(AVR32DU1-PD6)*%
X173500000Y-151500000D03*
%TO.P,PS2_CON1,8,NC_8*%
%TO.N,unconnected-(PS2_CON1-NC-Pad8)*%
X173500000Y-155500000D03*
%TO.P,PS2_CON1,9,ACK_9*%
%TO.N,Net-(AVR32DU1-PC3)*%
X173500000Y-159500000D03*
%TD*%
D22*
%TO.P,L1,1,1_1*%
%TO.N,/V_SW*%
X159375000Y-138000000D03*
%TO.P,L1,2,2_2*%
%TO.N,+5V*%
X157625000Y-138000000D03*
%TD*%
D19*
%TO.P,C7,1*%
%TO.N,+5V*%
X151137500Y-143500000D03*
%TO.P,C7,2*%
%TO.N,GND*%
X152862500Y-143500000D03*
%TD*%
D12*
%TO.P,R2,1*%
%TO.N,Net-(J2-CC1)*%
X149500000Y-146912500D03*
%TO.P,R2,2*%
%TO.N,GND*%
X149500000Y-145087500D03*
%TD*%
D19*
%TO.P,C2,1*%
%TO.N,+3V3*%
X166137500Y-157000000D03*
%TO.P,C2,2*%
%TO.N,GND*%
X167862500Y-157000000D03*
%TD*%
D23*
%TO.P,NCV5171,1,VC_1*%
%TO.N,Net-(NCV5171-VC)*%
X150325000Y-133995000D03*
%TO.P,NCV5171,2,FB_2*%
%TO.N,Net-(NCV5171-FB)*%
X150325000Y-135265000D03*
%TO.P,NCV5171,3,TEST_3*%
%TO.N,unconnected-(NCV5171-TEST-Pad3)*%
X150325000Y-136535000D03*
%TO.P,NCV5171,4,SS_4*%
%TO.N,/SS*%
X150325000Y-137805000D03*
%TO.P,NCV5171,5,V_CC_5*%
%TO.N,+5V*%
X155275000Y-137805000D03*
%TO.P,NCV5171,6,PGND_6*%
%TO.N,GND*%
X155275000Y-136535000D03*
%TO.P,NCV5171,7,AGND_7*%
X155275000Y-135265000D03*
%TO.P,NCV5171,8,V_SW_8*%
%TO.N,/V_SW*%
X155275000Y-133995000D03*
%TD*%
D24*
%TO.P,J2,A1,GND_A1*%
%TO.N,GND*%
X147680000Y-145300000D03*
%TO.P,J2,A4,VBUS_A4*%
%TO.N,+5V*%
X147680000Y-146100000D03*
D25*
%TO.P,J2,A5,CC1_A5*%
%TO.N,Net-(J2-CC1)*%
X147680000Y-147250000D03*
%TO.P,J2,A6,D+_A6*%
%TO.N,Net-(AVR32DU1-DP)*%
X147680000Y-148250000D03*
%TO.P,J2,A7,D-_A7*%
%TO.N,Net-(AVR32DU1-DM)*%
X147680000Y-148750000D03*
%TO.P,J2,A8*%
%TO.N,N/C*%
X147680000Y-149750000D03*
D24*
%TO.P,J2,A9,VBUS_A9*%
%TO.N,+5V*%
X147680000Y-150900000D03*
%TO.P,J2,A12,GND_A12*%
%TO.N,GND*%
X147680000Y-151700000D03*
%TO.P,J2,B1,GND_B1*%
X147680000Y-151700000D03*
%TO.P,J2,B4,VBUS_B4*%
%TO.N,+5V*%
X147680000Y-150900000D03*
D25*
%TO.P,J2,B5,CC2_B5*%
%TO.N,Net-(J2-CC2)*%
X147680000Y-150250000D03*
%TO.P,J2,B6,D+_B6*%
%TO.N,Net-(AVR32DU1-DP)*%
X147680000Y-149250000D03*
%TO.P,J2,B7,D-_B7*%
%TO.N,Net-(AVR32DU1-DM)*%
X147680000Y-147750000D03*
%TO.P,J2,B8*%
%TO.N,N/C*%
X147680000Y-146750000D03*
D24*
%TO.P,J2,B9,VBUS_B9*%
%TO.N,+5V*%
X147680000Y-146100000D03*
%TO.P,J2,B12,GND_B12*%
%TO.N,GND*%
X147680000Y-145300000D03*
D26*
%TO.P,J2,SH,SHIELD_SH*%
X147105000Y-144180000D03*
D27*
X142925000Y-144180000D03*
D26*
X147105000Y-152820000D03*
D27*
X142925000Y-152820000D03*
%TD*%
D11*
%TO.P,R4,1*%
%TO.N,Net-(C6-Pad2)*%
X158000000Y-128500000D03*
%TO.P,R4,2*%
%TO.N,GND*%
X158000000Y-130325000D03*
%TD*%
D19*
%TO.P,C5,1*%
%TO.N,+5V*%
X155637500Y-140000000D03*
%TO.P,C5,2*%
%TO.N,GND*%
X157362500Y-140000000D03*
%TD*%
%TO.P,C3,1*%
%TO.N,+5V*%
X155637500Y-143000000D03*
%TO.P,C3,2*%
%TO.N,GND*%
X157362500Y-143000000D03*
%TD*%
D28*
%TO.P,D1,1,K_1*%
%TO.N,+7.5V*%
X167200000Y-131000000D03*
%TO.P,D1,2,A_2*%
%TO.N,/V_SW*%
X161800000Y-131000000D03*
%TD*%
D29*
%TO.P,C4,1*%
%TO.N,Net-(AVR32DU1-RESET)*%
X151902500Y-156000000D03*
%TO.P,C4,2*%
%TO.N,GND*%
X150177500Y-156000000D03*
%TD*%
D30*
%TO.P,J1,1,DATA_1*%
%TO.N,Net-(AVR32DU1-UPDI)*%
X162540000Y-155500000D03*
D31*
%TO.P,J1,2,VCC_2*%
%TO.N,+3V3*%
X162540000Y-158040000D03*
%TO.P,J1,3,NC_3*%
%TO.N,unconnected-(J1-NC-Pad3)*%
X160000000Y-155500000D03*
%TO.P,J1,4,NC_4*%
%TO.N,unconnected-(J1-NC-Pad4)*%
X160000000Y-158040000D03*
%TO.P,J1,5,NC_5*%
%TO.N,unconnected-(J1-NC-Pad5)*%
X157460000Y-155500000D03*
%TO.P,J1,6,GND_6*%
%TO.N,GND*%
X157460000Y-158040000D03*
%TD*%
D32*
%TO.N,+5V*%
X150000000Y-144000000D03*
%TO.N,*%
X152000000Y-144500000D03*
%TO.N,+5V*%
X148500000Y-146100000D03*
X151000000Y-151500000D03*
X169040000Y-152460000D03*
%TO.N,GND*%
X159500000Y-139500000D03*
%TO.N,Net-(AVR32DU1-RESET)*%
X153500000Y-156500000D03*
X164000000Y-152500000D03*
%TO.N,Net-(AVR32DU1-PD5)*%
X170500000Y-132000000D03*
X167500000Y-136500000D03*
%TO.N,/SS*%
X150500000Y-139500000D03*
X163750000Y-147250000D03*
%TO.N,Net-(AVR32DU1-DM)*%
X169000000Y-149000000D03*
X149624265Y-148724265D03*
%TO.N,Net-(AVR32DU1-DP)*%
X170000000Y-147000000D03*
X148695024Y-149083459D03*
%TD*%
%TO.N,+5V*%
D33*
X150500000Y-150500000D02*
X150100000Y-150900000D01*
X150500000Y-147285000D02*
X150500000Y-150500000D01*
X152000000Y-146885000D02*
X150900000Y-146885000D01*
X150900000Y-146885000D02*
X150500000Y-147285000D01*
%TO.N,Net-(AVR32DU1-DM)*%
D10*
X149624265Y-148724265D02*
X149624265Y-148624265D01*
X148750000Y-147750000D02*
X147680000Y-147750000D01*
X149624265Y-148624265D02*
X148750000Y-147750000D01*
%TO.N,Net-(AVR32DU1-DP)*%
X148572590Y-149000000D02*
X148555000Y-148982410D01*
X148695024Y-149083459D02*
X148611565Y-149000000D01*
X148611565Y-149000000D02*
X148572590Y-149000000D01*
%TO.N,+5V*%
D33*
X150637500Y-144000000D02*
X151137500Y-143500000D01*
X150000000Y-144000000D02*
X150637500Y-144000000D01*
X150700000Y-151500000D02*
X150100000Y-150900000D01*
X151000000Y-151500000D02*
X150700000Y-151500000D01*
X169040000Y-152460000D02*
X169000000Y-152500000D01*
X169040000Y-150600000D02*
X169040000Y-152460000D01*
X153412432Y-142675000D02*
X152312568Y-142675000D01*
X153462432Y-142725000D02*
X153412432Y-142675000D01*
X155362500Y-142725000D02*
X153462432Y-142725000D01*
X152262568Y-142725000D02*
X151912500Y-142725000D01*
X151912500Y-142725000D02*
X151137500Y-143500000D01*
X155637500Y-143000000D02*
X155362500Y-142725000D01*
X152312568Y-142675000D02*
X152262568Y-142725000D01*
%TO.N,+7.5V*%
D34*
X147500000Y-128500000D02*
X145000000Y-128500000D01*
X163700000Y-127500000D02*
X148500000Y-127500000D01*
X167200000Y-131000000D02*
X163700000Y-127500000D01*
X148500000Y-127500000D02*
X147500000Y-128500000D01*
%TO.N,+3V3*%
D10*
X162690000Y-147190000D02*
X163290000Y-147790000D01*
X155487500Y-153850000D02*
X161390000Y-153850000D01*
X163290000Y-151950000D02*
X161390000Y-153850000D01*
X169000000Y-147000000D02*
X166425000Y-147000000D01*
X165900000Y-146475000D02*
X165900000Y-144395000D01*
X162690000Y-145400000D02*
X162690000Y-147190000D01*
X154137500Y-152500000D02*
X155487500Y-153850000D01*
X154137500Y-152442500D02*
X154137500Y-152500000D01*
X165005000Y-143500000D02*
X163500000Y-143500000D01*
X163000000Y-144000000D02*
X162690000Y-144000000D01*
X166425000Y-147000000D02*
X165900000Y-146475000D01*
X169710000Y-146290000D02*
X169000000Y-147000000D01*
X161390000Y-153850000D02*
X161390000Y-156890000D01*
X162690000Y-142310000D02*
X162690000Y-145400000D01*
X163500000Y-143500000D02*
X163000000Y-144000000D01*
X169710000Y-144325000D02*
X169710000Y-146290000D01*
X166137500Y-157000000D02*
X163580000Y-157000000D01*
X165087500Y-140087500D02*
X165000000Y-140000000D01*
X166137500Y-157000000D02*
X166137500Y-154000000D01*
X152000000Y-150305000D02*
X154137500Y-152442500D01*
X163290000Y-147790000D02*
X163290000Y-151950000D01*
X163580000Y-157000000D02*
X162540000Y-158040000D01*
X168000000Y-140087500D02*
X165087500Y-140087500D01*
X162690000Y-144000000D02*
X162690000Y-145400000D01*
X173500000Y-143500000D02*
X170535000Y-143500000D01*
X161390000Y-156890000D02*
X162540000Y-158040000D01*
X165000000Y-140000000D02*
X162690000Y-142310000D01*
X165900000Y-144395000D02*
X165005000Y-143500000D01*
X170535000Y-143500000D02*
X169710000Y-144325000D01*
%TO.N,Net-(AVR32DU1-PC3)*%
X167170000Y-146475000D02*
X167170000Y-142742500D01*
X167170000Y-142742500D02*
X168000000Y-141912500D01*
X174800000Y-142961522D02*
X174038478Y-142200000D01*
X168370000Y-146475000D02*
X167170000Y-146475000D01*
X171265000Y-142200000D02*
X169040000Y-144425000D01*
X169040000Y-144425000D02*
X169040000Y-145400000D01*
X169040000Y-145805000D02*
X168370000Y-146475000D01*
X174038478Y-142200000D02*
X171265000Y-142200000D01*
X173500000Y-159500000D02*
X174800000Y-158200000D01*
X174800000Y-158200000D02*
X174800000Y-142961522D01*
X169040000Y-145400000D02*
X169040000Y-145805000D01*
%TO.N,Net-(NCV5171-FB)*%
X147500000Y-132785552D02*
X149979448Y-135265000D01*
X147500000Y-132500000D02*
X149000000Y-131000000D01*
X147460552Y-132785552D02*
X145000000Y-130325000D01*
X149979448Y-135265000D02*
X150325000Y-135265000D01*
X147500000Y-132785552D02*
X147460552Y-132785552D01*
X147500000Y-132785552D02*
X147500000Y-132500000D01*
X149000000Y-131000000D02*
X149000000Y-130325000D01*
%TO.N,GND*%
X157300000Y-147937500D02*
X157300000Y-148025000D01*
X148506722Y-160375000D02*
X147500000Y-160375000D01*
X149000000Y-128500000D02*
X150000000Y-128500000D01*
X142925000Y-153425000D02*
X142925000Y-152820000D01*
X156587500Y-143775000D02*
X153137500Y-143775000D01*
X151000000Y-148025000D02*
X157300000Y-148025000D01*
X168875000Y-159966722D02*
X168566722Y-160275000D01*
X141500000Y-160375000D02*
X147500000Y-160375000D01*
X168566722Y-160275000D02*
X159695000Y-160275000D01*
X158450000Y-138912500D02*
X157362500Y-140000000D01*
X150177500Y-156000000D02*
X150915000Y-156737500D01*
X150000000Y-128500000D02*
X150837500Y-129337500D01*
X150837500Y-129337500D02*
X154337500Y-129337500D01*
X155862500Y-152500000D02*
X155862500Y-150462500D01*
X157362500Y-147962500D02*
X157300000Y-148025000D01*
X155275000Y-136535000D02*
X157451722Y-136535000D01*
X168875000Y-158012500D02*
X168875000Y-159966722D01*
X149677500Y-155500000D02*
X145000000Y-155500000D01*
X155325000Y-130325000D02*
X158000000Y-130325000D01*
X147105000Y-152820000D02*
X147105000Y-152895000D01*
X147105000Y-152275000D02*
X147680000Y-151700000D01*
X170500000Y-139650000D02*
X173350000Y-139650000D01*
X159000000Y-140000000D02*
X157362500Y-140000000D01*
X149000000Y-128500000D02*
X148000000Y-129500000D01*
X157451722Y-136535000D02*
X158450000Y-137533278D01*
X154337500Y-129337500D02*
X155325000Y-130325000D01*
X153137500Y-143775000D02*
X152862500Y-143500000D01*
X149500000Y-151825000D02*
X147805000Y-151825000D01*
X142925000Y-152820000D02*
X142830000Y-152820000D01*
X150915000Y-157966722D02*
X148506722Y-160375000D01*
X158300000Y-148025000D02*
X153775000Y-143500000D01*
X150177500Y-156000000D02*
X149677500Y-155500000D01*
X160875000Y-150600000D02*
X158300000Y-148025000D01*
X149500000Y-145087500D02*
X147892500Y-145087500D01*
X157300000Y-148025000D02*
X157525000Y-148025000D01*
X144570778Y-129500000D02*
X142925000Y-131145778D01*
X153000000Y-135750000D02*
X153485000Y-135265000D01*
X167862500Y-154000000D02*
X167862500Y-157000000D01*
X145000000Y-155500000D02*
X142925000Y-153425000D01*
X150915000Y-156737500D02*
X150915000Y-157966722D01*
X147105000Y-144180000D02*
X147105000Y-144725000D01*
X147105000Y-144725000D02*
X147680000Y-145300000D01*
X148000000Y-129500000D02*
X144570778Y-129500000D01*
X153775000Y-143500000D02*
X152862500Y-143500000D01*
X158450000Y-137533278D02*
X158450000Y-138912500D01*
X159500000Y-139500000D02*
X159000000Y-140000000D01*
X153485000Y-135265000D02*
X155275000Y-135265000D01*
X162690000Y-150600000D02*
X160875000Y-150600000D01*
X142925000Y-152820000D02*
X143519527Y-152820000D01*
X173350000Y-139650000D02*
X173500000Y-139500000D01*
X147500000Y-160375000D02*
X155125000Y-160375000D01*
X157362500Y-143000000D02*
X156587500Y-143775000D01*
X156897182Y-130325000D02*
X152800000Y-134422182D01*
X158000000Y-130325000D02*
X156897182Y-130325000D01*
X157362500Y-143000000D02*
X157362500Y-140000000D01*
X147892500Y-145087500D02*
X147680000Y-145300000D01*
X155862500Y-150462500D02*
X158300000Y-148025000D01*
X147805000Y-151825000D02*
X147680000Y-151700000D01*
X142925000Y-144180000D02*
X143232500Y-144180000D01*
X154490000Y-135750000D02*
X155275000Y-136535000D01*
X157300000Y-145533278D02*
X157300000Y-148025000D01*
X147105000Y-152895000D02*
X147000000Y-153000000D01*
X147105000Y-152895000D02*
X147105000Y-152275000D01*
X142925000Y-131145778D02*
X142925000Y-144180000D01*
X153000000Y-135750000D02*
X154490000Y-135750000D01*
X155125000Y-160375000D02*
X157460000Y-158040000D01*
X167862500Y-157000000D02*
X168875000Y-158012500D01*
X159695000Y-160275000D02*
X157460000Y-158040000D01*
X157525000Y-148025000D02*
X160100000Y-150600000D01*
%TO.N,Net-(NCV5171-VC)*%
X153500000Y-130225000D02*
X153500000Y-130820000D01*
X153500000Y-130820000D02*
X150325000Y-133995000D01*
%TO.N,Net-(C6-Pad2)*%
X153500000Y-128500000D02*
X158000000Y-128500000D01*
%TO.N,Net-(AVR32DU1-RESET)*%
X153000000Y-156000000D02*
X153500000Y-156500000D01*
X164000000Y-150640000D02*
X163960000Y-150600000D01*
X151952500Y-157500000D02*
X151952500Y-156050000D01*
X151902500Y-156000000D02*
X153000000Y-156000000D01*
X164000000Y-152500000D02*
X164000000Y-150640000D01*
X151952500Y-156050000D02*
X151902500Y-156000000D01*
%TO.N,Net-(R3-Pad2)*%
X147500000Y-156625000D02*
X147875000Y-156625000D01*
X148750000Y-157500000D02*
X150127500Y-157500000D01*
X147875000Y-156625000D02*
X148750000Y-157500000D01*
X147500000Y-156625000D02*
X141500000Y-156625000D01*
%TO.N,Net-(AVR32DU1-UPDI)*%
X165230000Y-152810000D02*
X165230000Y-150600000D01*
X162540000Y-155500000D02*
X165230000Y-152810000D01*
%TO.N,+7.5V*%
D34*
X170500000Y-136350000D02*
X172650000Y-136350000D01*
X172650000Y-136350000D02*
X173500000Y-135500000D01*
X170000000Y-136350000D02*
X170000000Y-133800000D01*
X170000000Y-133800000D02*
X167200000Y-131000000D01*
%TO.N,+5V*%
D33*
X155637500Y-140000000D02*
X155637500Y-143000000D01*
X150100000Y-150900000D02*
X149829222Y-150900000D01*
X152000000Y-146885000D02*
X152000000Y-145745000D01*
X151645000Y-146100000D02*
X152000000Y-145745000D01*
X151137500Y-143500000D02*
X151137500Y-143862500D01*
X157625000Y-138000000D02*
X155470000Y-138000000D01*
X152000000Y-145745000D02*
X151137500Y-144882500D01*
X155637500Y-138167500D02*
X155637500Y-140000000D01*
X149829222Y-150900000D02*
X147680000Y-150900000D01*
X151137500Y-144882500D02*
X151137500Y-143500000D01*
X155275000Y-137805000D02*
X155637500Y-138167500D01*
X155470000Y-138000000D02*
X155275000Y-137805000D01*
%TO.N,Net-(AVR32DU1-PD5)*%
D10*
X167500000Y-136500000D02*
X169000000Y-138000000D01*
X166370000Y-143195000D02*
X166370000Y-145270000D01*
X170500000Y-130500000D02*
X170500000Y-132000000D01*
X169000000Y-140801304D02*
X168676304Y-141125000D01*
X173500000Y-127500000D02*
X170500000Y-130500000D01*
X169000000Y-138000000D02*
X169000000Y-140801304D01*
X165700000Y-141125000D02*
X165000000Y-141825000D01*
X165000000Y-141825000D02*
X166370000Y-143195000D01*
X168676304Y-141125000D02*
X165700000Y-141125000D01*
%TO.N,/SS*%
X150500000Y-139500000D02*
X150500000Y-137980000D01*
X166500000Y-150000000D02*
X163750000Y-147250000D01*
X150500000Y-137980000D02*
X150325000Y-137805000D01*
X166500000Y-150600000D02*
X166500000Y-150000000D01*
%TO.N,Net-(AVR32DU1-DM)*%
X147072590Y-148750000D02*
X146805000Y-148482410D01*
X147072590Y-147750000D02*
X147680000Y-147750000D01*
X169000000Y-149000000D02*
X170000000Y-149000000D01*
X146805000Y-148482410D02*
X146805000Y-148017590D01*
X146805000Y-148017590D02*
X147072590Y-147750000D01*
X170310000Y-149310000D02*
X170310000Y-150600000D01*
X147680000Y-148750000D02*
X147072590Y-148750000D01*
X170000000Y-149000000D02*
X170310000Y-149310000D01*
%TO.N,Net-(AVR32DU1-DP)*%
X170310000Y-146690000D02*
X170000000Y-147000000D01*
X148287410Y-148250000D02*
X147680000Y-148250000D01*
X148287410Y-149250000D02*
X148555000Y-148982410D01*
X148555000Y-148982410D02*
X148555000Y-148555000D01*
X147680000Y-149250000D02*
X148287410Y-149250000D01*
X148555000Y-148555000D02*
X148555000Y-148517590D01*
X148555000Y-148517590D02*
X148287410Y-148250000D01*
X170310000Y-145400000D02*
X170310000Y-146690000D01*
%TO.N,Net-(AVR32DU1-PD4)*%
X167770000Y-144730000D02*
X167770000Y-145400000D01*
X173338478Y-141500000D02*
X171265000Y-141500000D01*
X171265000Y-141500000D02*
X167770000Y-144995000D01*
X167770000Y-144995000D02*
X167770000Y-145400000D01*
X173500000Y-131500000D02*
X174800000Y-132800000D01*
X174800000Y-140038478D02*
X173338478Y-141500000D01*
X174800000Y-132800000D02*
X174800000Y-140038478D01*
%TO.N,Net-(AVR32DU1-PD6)*%
X173500000Y-151500000D02*
X170400000Y-148400000D01*
X165230000Y-144995000D02*
X165230000Y-145400000D01*
X163385000Y-146500000D02*
X163360000Y-146475000D01*
X170400000Y-148400000D02*
X165900000Y-148400000D01*
X163360000Y-146475000D02*
X163360000Y-144325000D01*
X164000000Y-146500000D02*
X163385000Y-146500000D01*
X163360000Y-144325000D02*
X163685000Y-144000000D01*
X165900000Y-148400000D02*
X164000000Y-146500000D01*
X164235000Y-144000000D02*
X165230000Y-144995000D01*
X163685000Y-144000000D02*
X164235000Y-144000000D01*
%TO.N,Net-(AVR32DU1-PD7)*%
X173500000Y-147500000D02*
X173000000Y-148000000D01*
X166085000Y-148000000D02*
X163960000Y-145875000D01*
X163960000Y-145875000D02*
X163960000Y-145400000D01*
X173000000Y-148000000D02*
X166085000Y-148000000D01*
X173500000Y-147500000D02*
X173500000Y-147000000D01*
%TO.N,Net-(J2-CC2)*%
X147680000Y-150250000D02*
X149250000Y-150250000D01*
X149250000Y-150250000D02*
X149500000Y-150000000D01*
%TO.N,/V_SW*%
D34*
X159400000Y-133400000D02*
X158805000Y-133995000D01*
X159375000Y-133425000D02*
X159375000Y-138000000D01*
X161800000Y-131000000D02*
X159400000Y-133400000D01*
X158805000Y-133995000D02*
X155275000Y-133995000D01*
X159400000Y-133400000D02*
X159375000Y-133425000D01*
%TO.N,Net-(J2-CC1)*%
D10*
X149162500Y-147250000D02*
X147680000Y-147250000D01*
X149500000Y-146912500D02*
X149162500Y-147250000D01*
%TO.N,+5V*%
D33*
X147680000Y-146100000D02*
X148500000Y-146100000D01*
%TD*%
M02*
