M48
; DRILL file KiCad 10.0.1 date 2026-05-16T00:19:35
; FORMAT={-:-/ absolute / metric / decimal}
; #@! TF.CreationDate,2026-05-16T00:19:35-04:00
; #@! TF.GenerationSoftware,Kicad,Pcbnew,10.0.1
; #@! TF.FileFunction,Plated,1,2,PTH
FMAT,2
METRIC
; #@! TA.AperFunction,Plated,PTH,ViaDrill
T1C0.300
; #@! TA.AperFunction,Plated,PTH,ComponentDrill
T2C0.600
; #@! TA.AperFunction,Plated,PTH,ComponentDrill
T3C1.000
%
G90
G05
T1
X148.5Y-146.1
X148.695Y-149.083
X149.624Y-148.724
X150.0Y-144.0
X150.5Y-139.5
X151.0Y-151.5
X152.0Y-144.5
X153.5Y-156.5
X159.5Y-139.5
X163.75Y-147.25
X164.0Y-152.5
X167.5Y-136.5
X169.0Y-149.0
X169.04Y-152.46
X170.0Y-147.0
X170.5Y-132.0
T3
X157.46Y-155.5
X157.46Y-158.04
X160.0Y-155.5
X160.0Y-158.04
X162.54Y-155.5
X162.54Y-158.04
X173.5Y-127.5
X173.5Y-131.5
X173.5Y-135.5
X173.5Y-139.5
X173.5Y-143.5
X173.5Y-147.5
X173.5Y-151.5
X173.5Y-155.5
X173.5Y-159.5
T2
G00X143.325Y-144.18
M15
G01X142.525Y-144.18
M16
G05
G00X143.325Y-152.82
M15
G01X142.525Y-152.82
M16
G05
G00X147.655Y-144.18
M15
G01X146.555Y-144.18
M16
G05
G00X147.655Y-152.82
M15
G01X146.555Y-152.82
M16
G05
M30
