%TF.GenerationSoftware,KiCad,Pcbnew,10.0.1*%
%TF.CreationDate,2026-05-15T23:15:13-04:00*%
%TF.ProjectId,MultiPsx2Usb,4d756c74-6950-4737-9832-5573622e6b69,rev?*%
%TF.SameCoordinates,Original*%
%TF.FileFunction,Copper,L2,Bot*%
%TF.FilePolarity,Positive*%
%FSLAX46Y46*%
G04 Gerber Fmt 4.6, Leading zero omitted, Abs format (unit mm)*
G04 Created by KiCad (PCBNEW 10.0.1) date 2026-05-15 23:15:13*
%MOMM*%
%LPD*%
G01*
G04 APERTURE LIST*
%TA.AperFunction,ComponentPad*%
%ADD10C,2.000000*%
%TD*%
%TA.AperFunction,ComponentPad*%
%ADD11O,2.100000X1.000000*%
%TD*%
%TA.AperFunction,ComponentPad*%
%ADD12O,1.800000X1.000000*%
%TD*%
%TA.AperFunction,ComponentPad*%
%ADD13R,1.700000X1.700000*%
%TD*%
%TA.AperFunction,ComponentPad*%
%ADD14C,1.700000*%
%TD*%
%TA.AperFunction,ViaPad*%
%ADD15C,0.600000*%
%TD*%
%TA.AperFunction,Conductor*%
%ADD16C,0.200000*%
%TD*%
%TA.AperFunction,Conductor*%
%ADD17C,0.300000*%
%TD*%
G04 APERTURE END LIST*
D10*
%TO.P,PS2_CON1,1,DATA_1*%
%TO.N,Net-(AVR32DU1-PD5)*%
X173500000Y-127500000D03*
%TO.P,PS2_CON1,2,COMMAND_2*%
%TO.N,Net-(AVR32DU1-PD4)*%
X173500000Y-131500000D03*
%TO.P,PS2_CON1,3,VIBRATION_3*%
%TO.N,+7.5V*%
X173500000Y-135500000D03*
%TO.P,PS2_CON1,4,GND_4*%
%TO.N,GND*%
X173500000Y-139500000D03*
%TO.P,PS2_CON1,5,PWR_5*%
%TO.N,+3V3*%
X173500000Y-143500000D03*
%TO.P,PS2_CON1,6,ATT_6*%
%TO.N,Net-(AVR32DU1-PD7)*%
X173500000Y-147500000D03*
%TO.P,PS2_CON1,7,CLK_7*%
%TO.N,Net-(AVR32DU1-PD6)*%
X173500000Y-151500000D03*
%TO.P,PS2_CON1,8,NC_8*%
%TO.N,unconnected-(PS2_CON1-NC-Pad8)*%
X173500000Y-155500000D03*
%TO.P,PS2_CON1,9,ACK_9*%
%TO.N,Net-(AVR32DU1-PC3)*%
X173500000Y-159500000D03*
%TD*%
D11*
%TO.P,J2,SH,SHIELD_SH*%
%TO.N,GND*%
X147105000Y-144180000D03*
D12*
X142925000Y-144180000D03*
D11*
X147105000Y-152820000D03*
D12*
X142925000Y-152820000D03*
%TD*%
D13*
%TO.P,J1,1,DATA_1*%
%TO.N,Net-(AVR32DU1-UPDI)*%
X162540000Y-155500000D03*
D14*
%TO.P,J1,2,VCC_2*%
%TO.N,+3V3*%
X162540000Y-158040000D03*
%TO.P,J1,3,NC_3*%
%TO.N,unconnected-(J1-NC-Pad3)*%
X160000000Y-155500000D03*
%TO.P,J1,4,NC_4*%
%TO.N,unconnected-(J1-NC-Pad4)*%
X160000000Y-158040000D03*
%TO.P,J1,5,NC_5*%
%TO.N,unconnected-(J1-NC-Pad5)*%
X157460000Y-155500000D03*
%TO.P,J1,6,GND_6*%
%TO.N,GND*%
X157460000Y-158040000D03*
%TD*%
D15*
%TO.N,+5V*%
X150000000Y-144000000D03*
%TO.N,*%
X152000000Y-144500000D03*
%TO.N,+5V*%
X148500000Y-146100000D03*
X151000000Y-151500000D03*
X169040000Y-152460000D03*
%TO.N,GND*%
X159500000Y-139500000D03*
%TO.N,Net-(AVR32DU1-RESET)*%
X153500000Y-156500000D03*
X164000000Y-152500000D03*
%TO.N,Net-(AVR32DU1-PD5)*%
X170500000Y-132000000D03*
X167500000Y-136500000D03*
%TO.N,/SS*%
X150500000Y-139500000D03*
X163750000Y-147250000D03*
%TO.N,Net-(AVR32DU1-DM)*%
X169000000Y-149000000D03*
X149624265Y-148724265D03*
%TO.N,Net-(AVR32DU1-DP)*%
X170000000Y-147000000D03*
X148695024Y-149083459D03*
%TD*%
%TO.N,GND*%
D16*
X145900000Y-151865000D02*
X146855000Y-152820000D01*
X146855000Y-152820000D02*
X147105000Y-152820000D01*
X147280000Y-144355000D02*
X147280000Y-145889594D01*
X147280000Y-145889594D02*
X145900000Y-147269594D01*
X147105000Y-144180000D02*
X147280000Y-144355000D01*
X145900000Y-147269594D02*
X145900000Y-151865000D01*
%TO.N,Net-(AVR32DU1-DM)*%
X149900000Y-149000000D02*
X149624265Y-148724265D01*
X169000000Y-149000000D02*
X149900000Y-149000000D01*
%TO.N,Net-(AVR32DU1-DP)*%
X148695024Y-148804976D02*
X149500000Y-148000000D01*
X149500000Y-148000000D02*
X169000000Y-148000000D01*
X169000000Y-148000000D02*
X170000000Y-147000000D01*
X148695024Y-149083459D02*
X148695024Y-148804976D01*
%TO.N,GND*%
X147105000Y-152820000D02*
X147280000Y-152645000D01*
%TO.N,+5V*%
D17*
X148500000Y-145500000D02*
X150000000Y-144000000D01*
X148500000Y-146100000D02*
X148500000Y-145500000D01*
X168080000Y-151500000D02*
X151000000Y-151500000D01*
X169040000Y-152460000D02*
X168080000Y-151500000D01*
%TO.N,GND*%
D16*
X147105000Y-152820000D02*
X142925000Y-152820000D01*
X142925000Y-152820000D02*
X142925000Y-144180000D01*
X160000000Y-139000000D02*
X159500000Y-139500000D01*
X173000000Y-139000000D02*
X160000000Y-139000000D01*
X173500000Y-139500000D02*
X173000000Y-139000000D01*
%TO.N,Net-(AVR32DU1-RESET)*%
X157500000Y-152500000D02*
X164000000Y-152500000D01*
X153500000Y-156500000D02*
X157500000Y-152500000D01*
%TO.N,Net-(AVR32DU1-PD5)*%
X167500000Y-135000000D02*
X167500000Y-136500000D01*
X170500000Y-132000000D02*
X167500000Y-135000000D01*
%TO.N,/SS*%
X156000000Y-139500000D02*
X150500000Y-139500000D01*
X163750000Y-147250000D02*
X156000000Y-139500000D01*
%TD*%
M02*
